HIERARCHY
ROOT Hips
{
	OFFSET	0.00	0.00	0.00
	CHANNELS 6 Xposition Yposition Zposition Zrotation Xrotation Yrotation
	JOINT LeftUpLeg
	{
		OFFSET	 0.126116	-0.065224	 0.014019
		CHANNELS 3 Zrotation Xrotation Yrotation
		JOINT LeftLeg
		{
			OFFSET	 0.000000	 0.569914	 0.000000
			CHANNELS 3 Zrotation Xrotation Yrotation
			JOINT LeftFoot
			{
				OFFSET	 0.000000	 0.544423	 0.000000
				CHANNELS 3 Zrotation Xrotation Yrotation
				JOINT LeftToeBase
				{
					OFFSET	 0.000000	 0.207117	 0.000000
					CHANNELS 3 Zrotation Xrotation Yrotation
					End Site
					{
						OFFSET	 0.000000	 0.207117	 0.000000
					}
				}
			}
		}
	}
	JOINT RightUpLeg
	{
		OFFSET	-0.124023	-0.065224	 0.008373
		CHANNELS 3 Zrotation Xrotation Yrotation
		JOINT RightLeg
		{
			OFFSET	 0.000000	 0.570047	 0.000000
			CHANNELS 3 Zrotation Xrotation Yrotation
			JOINT RightFoot
			{
				OFFSET	 0.000000	 0.544354	 0.000000
				CHANNELS 3 Zrotation Xrotation Yrotation
				JOINT RightToeBase
				{
					OFFSET	 0.000000	 0.207540	 0.000000
					CHANNELS 3 Zrotation Xrotation Yrotation
					End Site
					{
						OFFSET	 0.000000	 0.207540	 0.000000
					}
				}
			}
		}
	}
	JOINT Spine
	{
		OFFSET	 0.000184	 0.117403	 0.007763
		CHANNELS 3 Zrotation Xrotation Yrotation
		JOINT Spine1
		{
			OFFSET	 0.000000	 0.137269	 0.000000
			CHANNELS 3 Zrotation Xrotation Yrotation
			JOINT Spine2
			{
				OFFSET	 0.000000	 0.156879	 0.000000
				CHANNELS 3 Zrotation Xrotation Yrotation
				JOINT LeftShoulder
				{
					OFFSET	 0.080501	 0.160143	 0.002496
					CHANNELS 3 Zrotation Xrotation Yrotation
					JOINT LeftArm
					{
						OFFSET	 0.000000	 0.164363	 0.000000
						CHANNELS 3 Zrotation Xrotation Yrotation
						JOINT LeftForeArm
						{
							OFFSET	 0.000000	 0.364576	 0.000000
							CHANNELS 3 Zrotation Xrotation Yrotation
							JOINT LeftHand
							{
								OFFSET	 0.000000	 0.360812	 0.000000
								CHANNELS 3 Zrotation Xrotation Yrotation
								JOINT LeftHandIndex1
								{
									OFFSET	 0.000000	 0.086006	 0.000000
									CHANNELS 3 Zrotation Xrotation Yrotation
									JOINT LeftHandIndex2
									{
										OFFSET	 0.000000	 0.047237	 0.000000
										CHANNELS 3 Zrotation Xrotation Yrotation
										JOINT LeftHandIndex3
										{
											OFFSET	-0.004284	 0.038165	 0.000551
											CHANNELS 3 Zrotation Xrotation Yrotation
											End Site
											{
												OFFSET	-0.004284	 0.038165	 0.000551
											}
										}
									}
								}
							}
						}
					}
				}
				JOINT Neck
				{
					OFFSET	 0.000000	 0.176489	 0.000000
					CHANNELS 3 Zrotation Xrotation Yrotation
					JOINT Head
					{
						OFFSET	 0.000000	 0.077941	 0.001747
						CHANNELS 3 Zrotation Xrotation Yrotation
						End Site
						{
							OFFSET	 0.000000	 0.077941	 0.001747
						}
					}
				}
				JOINT RightShoulder
				{
					OFFSET	-0.080363	 0.159706	-0.000306
					CHANNELS 3 Zrotation Xrotation Yrotation
					JOINT RightArm
					{
						OFFSET	 0.000000	 0.164196	 0.000000
						CHANNELS 3 Zrotation Xrotation Yrotation
						JOINT RightForeArm
						{
							OFFSET	 0.000000	 0.365611	 0.000000
							CHANNELS 3 Zrotation Xrotation Yrotation
							JOINT RightHand
							{
								OFFSET	 0.000000	 0.360648	 0.000000
								CHANNELS 3 Zrotation Xrotation Yrotation
								JOINT RightHandIndex1
								{
									OFFSET	 0.000000	 0.069977	 0.000000
									CHANNELS 3 Zrotation Xrotation Yrotation
									JOINT RightHandIndex2
									{
										OFFSET	 0.000000	 0.052305	 0.000000
										CHANNELS 3 Zrotation Xrotation Yrotation
										JOINT RightHandIndex3
										{
											OFFSET	 0.009002	 0.042196	 0.000782
											CHANNELS 3 Zrotation Xrotation Yrotation
											End Site
											{
												OFFSET	 0.009002	 0.042196	 0.000782
											}
										}
									}
								}
							}
						}
					}
				}
			}
		}
	}
}
MOTION
Frames:    6
Frame Time: 0.03333334
-0.044182	 1.234302	-1.246624	-4.041360	 1.524738	-174.100500	 176.632400	 7.418845	-23.429550	 4.322074	-29.621600	 6.076646	 7.176919	 81.236600	-0.009275	 1.512287	 31.240310	-2.811662	 163.009000	 26.014850	 28.343410	-5.835063	-53.512700	 6.277637	 1.817564	 70.209400	-1.966461	-1.668530	 33.137300	 2.886185	-1.386235	 8.707955	 6.860956	-3.847357	 4.393360	 4.332837	 4.279182	-4.700385	-15.405510	-121.358900	 7.423541	 94.035520	 24.566290	 44.089410	-7.114809	 5.080536	-0.262524	-0.072205	 25.237300	 10.677920	 31.771250	 4.624177	 18.856530	-1.654968	-5.863953	 21.470840	 2.373669	 5.331528	 4.340008	-0.169039	-0.168371	-5.009586	-0.144698	-2.109231	-2.515926	-6.845704	 118.423900	-0.013279	-90.826380	 14.479430	 47.121380	-15.926380	-20.848090	-0.802272	-0.089013	 1.122638	 7.225756	 22.000750	-2.438165	 25.992480	 1.336381	 15.855080	 44.981340	-11.843920	-8.529009	 23.990480	-1.227679
-0.040130	 1.242535	-1.186688	-3.800658	 0.816820	-174.019600	 177.070900	 9.651929	-23.526450	 4.723193	-31.608220	 6.436916	 8.431309	 81.653080	-1.095947	 1.519018	 31.324030	-2.814831	 163.454700	 27.639180	 28.907720	-5.315045	-50.784670	 6.762021	-0.199333	 68.724770	-0.968541	-1.671467	 33.172410	 2.887654	-1.146241	 8.422505	 7.155483	-5.077763	-1.075745	 3.967802	 5.174297	-0.933961	-15.313640	-121.356700	 7.507337	 94.077100	 21.643840	 45.394930	-5.063426	 4.948977	-0.255108	-0.063387	 25.100990	 10.397290	 32.597820	 4.635000	 18.892030	-1.660739	-5.863857	 21.502030	 2.377112	 5.332868	 4.371383	-0.168469	-0.169905	-5.016711	-0.137650	-2.061142	-2.307870	-6.818291	 118.412200	-0.062704	-90.803160	 4.612832	 48.866470	-8.480893	-5.054242	-0.198115	 0.040443	-4.238079	 8.063677	 20.978530	-2.398854	 25.700580	 1.315308	 15.781110	 44.696550	-11.730140	-8.530126	 23.697460	-1.208144
-0.036212	 1.249609	-1.144977	-3.641320	 0.642999	-173.770000	 177.206700	 9.468548	-23.193350	 4.610209	-31.232700	 6.568705	 9.928961	 81.404910	-2.660598	 1.536758	 31.543980	-2.823225	 164.060300	 25.844640	 29.402150	-5.025894	-49.359990	 7.239770	 3.323809	 73.699950	-3.345627	-1.679195	 33.264670	 2.891528	-1.268811	 8.080412	 7.880757	-7.366786	-11.597370	 3.018084	 6.557861	 5.014628	-15.085160	-121.351200	 7.727487	 94.186460	 12.357250	 48.117230	 1.855209	 4.854979	-0.248427	-0.039222	 27.516990	 9.673283	 33.407970	 4.663462	 18.985310	-1.675942	-5.863615	 21.583980	 2.386159	 5.336385	 4.453807	-0.166974	-0.173929	-5.035432	-0.119132	-1.970499	-2.159632	-6.709163	 118.381700	-0.192567	-90.742260	 11.067350	 49.021450	-13.001300	-4.960321	-0.193043	 0.016134	-0.709125	 9.942646	 18.378200	-2.296564	 24.933440	 1.261226	 15.592200	 43.947680	-11.436170	-8.532531	 22.927430	-1.157043
-0.032412	 1.259699	-1.136413	-3.496320	 1.896626	-173.260200	 177.136600	 4.854111	-22.408260	 3.931658	-27.352650	 6.748127	 12.104870	 80.355610	-5.414672	 1.573063	 31.991060	-2.840597	 166.172200	 15.270280	 29.203630	-4.557293	-46.578780	 8.146564	 73.369960	 85.769360	-68.059460	-1.694948	 33.452160	 2.899460	-2.336429	 3.483620	 9.301937	-9.148054	-22.907980	 1.847282	 7.481061	 11.405080	-14.547490	-121.341300	 8.174996	 94.408810	-10.454900	 50.097890	 20.002100	 4.824234	-0.243410	 0.010670	 34.065860	 8.164873	 34.031630	 4.721441	 19.174870	-1.707019	-5.863164	 21.750540	 2.404563	 5.343533	 4.621341	-0.163951	-0.182091	-5.073485	-0.081497	-1.803262	-2.030969	-6.454938	 118.320200	-0.456594	-90.618690	 25.214890	 47.276920	-22.845750	-4.965339	-0.190540	-0.033900	 5.559339	 13.018860	 12.599510	-2.092873	 23.373270	 1.156847	 15.231160	 42.422850	-10.859710	-8.535110	 21.361650	-1.054093
-0.030017	 1.274043	-1.185349	-3.344385	 5.650271	-172.900100	 176.823100	-6.262175	-21.387810	 2.369819	-17.325880	 6.748142	 13.361240	 77.022050	-7.787360	 1.615527	 32.508720	-2.861239	 172.260300	-9.652760	 27.908960	-2.257195	-27.644930	 10.373930	 153.712700	 77.360570	-140.908400	-1.713271	 33.669260	 2.908744	-3.318341	-4.669402	 10.772150	-9.125418	-26.834650	 1.822215	 7.410976	 14.173070	-13.526730	-121.332000	 8.693258	 94.666520	-36.601250	 44.959790	 41.124910	 4.910723	-0.243631	 0.068967	 43.054800	 6.085930	 33.782230	 4.788796	 19.394330	-1.743303	-5.862713	 21.943400	 2.425898	 5.351799	 4.815330	-0.160476	-0.191510	-5.117556	-0.037923	-1.620218	-1.970053	-6.123270	 118.249600	-0.762514	-90.475910	 40.272480	 42.492710	-32.467180	-5.122862	-0.193554	-0.092429	 12.675230	 15.656330	 4.787225	-1.863620	 21.565870	 1.044866	 14.848790	 40.653660	-10.224640	-8.534331	 19.548160	-0.936251
-0.026180	 1.302165	-1.239671	-3.301375	 14.028790	-172.409400	 177.019700	-23.393670	-20.273750	 0.657442	-4.947628	 7.184592	 15.311970	 72.435100	-11.206740	 1.670556	 33.171160	-2.888500	-179.655000	-40.648880	 29.009360	-0.351920	-4.669775	 12.500170	 173.230200	 65.761150	-151.584500	-1.736850	 33.947090	 2.920780	-4.075533	-10.266000	 12.292340	-8.688148	-28.095340	 2.077810	 6.994345	 15.740700	-11.830730	-121.323600	 9.356494	 94.996700	-58.723800	 31.478050	 58.555750	 5.014439	-0.243672	 0.143489	 56.646800	 1.043914	 32.323520	 4.875342	 19.675120	-1.790209	-5.862248	 22.190220	 2.453242	 5.362363	 5.063585	-0.156069	-0.203516	-5.173963	 0.017834	-1.396679	-1.962971	-5.649182	 118.160300	-1.154240	-90.293750	 53.997600	 34.852830	-39.180970	-5.354067	-0.198528	-0.167217	 20.761830	 17.067190	-6.755455	-1.579655	 19.252960	 0.914664	 14.410080	 38.385890	-9.457327	-8.527655	 17.228020	-0.787237
